<svg xmlns="http://www.w3.org/2000/svg" viewBox="0 0 40 40"><defs><style>.cls-1{isolation:isolate;}.cls-2{fill:#55edb1;fill-rule:evenodd;}</style></defs><title>к432545</title><g id="Эллипс_9" data-name="Эллипс 9" class="cls-1"><g id="Эллипс_9-2" data-name="Эллипс 9"><path class="cls-2" d="M18,22.36l-7.71-7.71a6.53,6.53,0,0,0-1.41,1.9,4.57,4.57,0,0,0-.31,2L18,28h0L34.8,11.2l2-2a20,20,0,0,0-2.73-3.4L31.32,8.69v0ZM39,13.84l-3.29,3.32A15.63,15.63,0,0,1,36,20,16,16,0,1,1,27.57,5.9L30.48,3A20,20,0,1,0,39,13.84Z" transform="translate(0 0)"/></g></g></svg>