<svg id="Слой_1" data-name="Слой 1" xmlns="http://www.w3.org/2000/svg" viewBox="0 0 91.5 126.65"><defs><style>.cls-1{fill:#c6dae1;}</style></defs><title>2</title><path class="cls-1" d="M60.31,119.37H40.5c-6.14,0-11.14-5.41-11.14-12.05V22c0-6.64,5-12,11.14-12H96.3c6.14,0,11.13,5.41,11.13,12V75l-6.23-4.15V22c0-3.21-2.2-5.82-4.91-5.82H40.5c-2.71,0-4.91,2.61-4.91,5.82v85.33c0,3.21,2.2,5.82,4.91,5.82H58.23Z" transform="translate(-29.36 -6.81)"/><rect class="cls-1" x="30.23" y="27.18" width="30.34" height="6.23"/><rect class="cls-1" x="30.23" y="47.09" width="30.34" height="6.23"/><path class="cls-1" d="M80.35,13H56.45a3.11,3.11,0,0,1-3.11-3.11h0a3.11,3.11,0,0,1,3.11-3.11h23.9a3.11,3.11,0,0,1,3.11,3.11h0A3.11,3.11,0,0,1,80.35,13Z" transform="translate(-29.36 -6.81)"/><path class="cls-1" d="M93.08,133.46a29.21,29.21,0,0,1-4.76-.39,5.05,5.05,0,0,1-4.09-4l-1-4.76a21.19,21.19,0,0,1-2.81-1.63l-4.6,1.54a5,5,0,0,1-5.49-1.55,29.32,29.32,0,0,1-4.76-8.23,5.05,5.05,0,0,1,1.4-5.54l3.64-3.21c0-.54-.06-1.08-.06-1.63s0-1.09.06-1.63L67,99.25a5,5,0,0,1-1.4-5.54,29.18,29.18,0,0,1,4.76-8.23,5.07,5.07,0,0,1,5.49-1.55l4.61,1.55a23.08,23.08,0,0,1,2.81-1.63l1-4.76a5.05,5.05,0,0,1,4.09-4,29.75,29.75,0,0,1,9.51,0,5.05,5.05,0,0,1,4.09,4l1,4.75a23,23,0,0,1,2.81,1.62l4.61-1.55a5.06,5.06,0,0,1,5.49,1.55,29.18,29.18,0,0,1,4.76,8.23,5.06,5.06,0,0,1-1.4,5.54l-3.64,3.21c0,.54.06,1.08.06,1.63s0,1.09-.06,1.62l3.64,3.21a5.05,5.05,0,0,1,1.4,5.53,29.37,29.37,0,0,1-4.76,8.24,5.06,5.06,0,0,1-5.5,1.55l-4.6-1.54a21.78,21.78,0,0,1-2.81,1.62l-1,4.76a5.05,5.05,0,0,1-4.09,4A26,26,0,0,1,93.08,133.46Zm2.74-5.61ZM90.17,127A22.6,22.6,0,0,0,96,127l.92-4.55a5,5,0,0,1,2.89-3.59,16,16,0,0,0,2.75-1.59,5.07,5.07,0,0,1,4.56-.71l4.41,1.48a23.36,23.36,0,0,0,2.91-5L110.94,110a5.11,5.11,0,0,1-1.67-4.29c0-.53.08-1.06.08-1.6s0-1.07-.08-1.6a5,5,0,0,1,1.67-4.29l3.48-3.08a23,23,0,0,0-2.91-5l-4.4,1.48a5.06,5.06,0,0,1-4.56-.71,16.38,16.38,0,0,0-2.75-1.59,5.09,5.09,0,0,1-2.89-3.59L96,81.12a23.53,23.53,0,0,0-5.81,0l-.92,4.55a5.09,5.09,0,0,1-2.89,3.59,16,16,0,0,0-2.75,1.59,5.07,5.07,0,0,1-4.56.71l-4.41-1.48a23,23,0,0,0-2.91,5l3.48,3.07a5.06,5.06,0,0,1,1.66,4.3c0,.52-.08,1-.08,1.59s0,1.07.08,1.6A5.07,5.07,0,0,1,75.22,110L71.74,113a22.72,22.72,0,0,0,2.91,5l4.4-1.48a5.07,5.07,0,0,1,4.56.71,16,16,0,0,0,2.75,1.59,5.1,5.1,0,0,1,2.89,3.58ZM103,123.72ZM70.69,106.29Zm0-4.4Zm41.59-12.06ZM95.82,80.32Z" transform="translate(-29.36 -6.81)"/><path class="cls-1" d="M93.08,114.71a10.62,10.62,0,1,1,10.62-10.62A10.63,10.63,0,0,1,93.08,114.71Zm0-15a4.39,4.39,0,1,0,4.39,4.39A4.4,4.4,0,0,0,93.08,99.69Z" transform="translate(-29.36 -6.81)"/><path class="cls-1" d="M49.12,40.53H48.7a3.33,3.33,0,0,1-3.22-3.43h0a3.33,3.33,0,0,1,3.22-3.43h.41a3.33,3.33,0,0,1,3.22,3.43h0A3.31,3.31,0,0,1,49.12,40.53Z" transform="translate(-29.36 -6.81)"/><path class="cls-1" d="M49.12,60.44H48.7A3.33,3.33,0,0,1,45.48,57h0a3.33,3.33,0,0,1,3.22-3.43h.41A3.33,3.33,0,0,1,52.33,57h0A3.32,3.32,0,0,1,49.12,60.44Z" transform="translate(-29.36 -6.81)"/></svg>