<?xml version="1.0" encoding="utf-8"?><svg xmlns="http://www.w3.org/2000/svg" xmlns:xlink="http://www.w3.org/1999/xlink"><symbol viewBox="0 0 40 40" id="check" xmlns="http://www.w3.org/2000/svg"><path d="M18 22.36l-7.71-7.71a6.53 6.53 0 00-1.41 1.9 4.57 4.57 0 00-.31 2L18 28l16.8-16.8 2-2a20 20 0 00-2.73-3.4l-2.75 2.89zm21-8.52l-3.29 3.32A15.63 15.63 0 0136 20a16 16 0 11-8.43-14.1L30.48 3A20 20 0 1039 13.84z" fill-rule="evenodd" data-name="Эллипс 9"/></symbol><symbol id="gray-notes" viewBox="0 0 98 99.12" xmlns="http://www.w3.org/2000/svg"><defs><style>.bcls-1{fill:#c6dae1}</style></defs><path class="bcls-1" d="M83.43 15.86h11.46v13.62H83.43zM3.12 2.97h64.64v12.66H3.12zm0 30.05h64.64v6.23H3.12z"/><path class="bcls-1" d="M3.12 12.51h64.64v6.23H3.12z"/><path class="bcls-1" d="M48.05 99.51H35.53a1.36 1.36 0 01-1.36-1.36v-3.51a1.36 1.36 0 011.36-1.36H48a1.36 1.36 0 011.36 1.36v3.51a1.35 1.35 0 01-1.31 1.36zm24.79-26.25H61a1.36 1.36 0 01-1.36-1.36v-3.51A1.36 1.36 0 0161 67h11.84a1.36 1.36 0 011.36 1.36v3.54a1.36 1.36 0 01-1.36 1.36zm.81 26.25H60.14a1.36 1.36 0 01-1.36-1.36v-3.51a1.36 1.36 0 011.36-1.36h13.52A1.36 1.36 0 0175 94.64v3.51a1.37 1.37 0 01-1.35 1.36zm-.81-17.25H61a1.36 1.36 0 01-1.36-1.36v-3.51A1.36 1.36 0 0161 76h11.84a1.36 1.36 0 011.36 1.36v3.54a1.36 1.36 0 01-1.36 1.36z" transform="translate(-18.98 -18.49)"/><path class="bcls-1" d="M38.68 102.65V90.14A1.36 1.36 0 0140 88.78h3.51a1.36 1.36 0 011.36 1.36v12.51a1.36 1.36 0 01-1.32 1.35H40a1.36 1.36 0 01-1.32-1.35zm5.75-20.97L34.75 72a1.36 1.36 0 010-1.92l2.48-2.48a1.36 1.36 0 011.92 0l9.68 9.68a1.36 1.36 0 010 1.92l-2.48 2.48a1.34 1.34 0 01-1.92 0z" transform="translate(-18.98 -18.49)"/><path class="bcls-1" d="M34.75 77.28l9.68-9.68a1.36 1.36 0 011.92 0l2.48 2.48a1.36 1.36 0 010 1.92l-9.68 9.68a1.36 1.36 0 01-1.92 0l-2.48-2.48a1.36 1.36 0 010-1.92z" transform="translate(-18.98 -18.49)"/><path class="bcls-1" d="M80.19 117.61H28.65a9.68 9.68 0 01-9.65-9.67V28.16a9.68 9.68 0 019.67-9.67h51.52a9.68 9.68 0 019.67 9.67v79.78a9.68 9.68 0 01-9.67 9.67zM28.65 24.72a3.44 3.44 0 00-3.44 3.44v79.78a3.45 3.45 0 003.44 3.44h51.54a3.44 3.44 0 003.44-3.44V28.16a3.45 3.45 0 00-3.44-3.44zM117 51.08H99.29V37.7a6.47 6.47 0 016.46-6.46h4.76A6.47 6.47 0 01117 37.7v13.38zm-11.46-6.22h5.23V37.7a.24.24 0 00-.24-.24h-4.76a.24.24 0 00-.24.24v7.16z" transform="translate(-18.98 -18.49)"/><path class="bcls-1" d="M108.14 108.65l-6.69-7.12a8 8 0 01-2.16-5.45V44.86H117v51.22a7.94 7.94 0 01-2.16 5.45zm-2.62-57.57v45a1.75 1.75 0 00.47 1.19l2.14 2.28 2.14-2.28a1.75 1.75 0 00.47-1.19v-45z" transform="translate(-18.98 -18.49)"/></symbol><symbol id="gray-phone" viewBox="0 0 93.04 131.19" xmlns="http://www.w3.org/2000/svg"><defs><style>.ccls-1{fill:#c6dae1}</style></defs><path class="ccls-1" d="M77.6 115.59h-31a15 15 0 01-15-15V19.84a15 15 0 0115-15h31a15 15 0 0115 15v31.42l-6.23-4.15V19.85A8.81 8.81 0 0077.6 11h-31a8.81 8.81 0 00-8.8 8.81v80.71a8.81 8.81 0 008.81 8.81h31a8.81 8.81 0 008.81-8.81V90.3l6.23 4.15v6.1a15.06 15.06 0 01-15 15zm30.48-3.13l-4.69-4.69a5.64 5.64 0 01-.43-7.5 16.14 16.14 0 00-1.25-21.42l-7.32-7.32 4.4-4.4 7.32 7.32a22.36 22.36 0 012 29.28l4.32 4.32zM27.6 80a7 7 0 00-5.91 11.92l5.91 5.88zm0-19.78a7 7 0 00-5.91 11.92l5.91 5.91zm0-19.74a7 7 0 00-5.91 11.92l5.91 5.91z" transform="translate(-19.63 -4.81)"/><path class="ccls-1" d="M71.79 103.7H52.4a3.11 3.11 0 01-3.11-3.11 3.11 3.11 0 013.11-3.11h19.39a3.11 3.11 0 013.11 3.11 3.11 3.11 0 01-3.11 3.11zm0-89.15H52.4a3.11 3.11 0 01-3.11-3.11 3.11 3.11 0 013.11-3.11h19.39a3.11 3.11 0 013.11 3.11 3.11 3.11 0 01-3.11 3.11zm12.33 37.89a10.15 10.15 0 10-14.35 14.35l22.88 22.88v-8.81L74.17 62.39a3.92 3.92 0 015.54-5.54L99.88 77l4.41-4.4zm-2.93 71.44a8.25 8.25 0 00-9.45-1.46 7.51 7.51 0 01-8.5-1.48l-1.68-1.68h-8.81l6.08 6.09a13.77 13.77 0 0015.57 2.71 2.12 2.12 0 012.4.24l7.75 7.7 4.39-4.42z" transform="translate(-19.63 -4.81)"/></symbol><symbol id="gray-settings" viewBox="0 0 91.5 126.65" xmlns="http://www.w3.org/2000/svg"><defs><style>.dcls-1{fill:#c6dae1}</style></defs><path class="dcls-1" d="M60.31 119.37H40.5c-6.14 0-11.14-5.41-11.14-12.05V22c0-6.64 5-12 11.14-12h55.8c6.14 0 11.13 5.41 11.13 12v53l-6.23-4.15V22c0-3.21-2.2-5.82-4.91-5.82H40.5c-2.71 0-4.91 2.61-4.91 5.82v85.33c0 3.21 2.2 5.82 4.91 5.82h17.73z" transform="translate(-29.36 -6.81)"/><path class="dcls-1" d="M30.23 27.18h30.34v6.23H30.23zm0 19.91h30.34v6.23H30.23z"/><path class="dcls-1" d="M80.35 13h-23.9a3.11 3.11 0 01-3.11-3.11 3.11 3.11 0 013.11-3.11h23.9a3.11 3.11 0 013.11 3.11A3.11 3.11 0 0180.35 13zm12.73 120.46a29.21 29.21 0 01-4.76-.39 5.05 5.05 0 01-4.09-4l-1-4.76a21.19 21.19 0 01-2.81-1.63l-4.6 1.54a5 5 0 01-5.49-1.55 29.32 29.32 0 01-4.76-8.23 5.05 5.05 0 011.4-5.54l3.64-3.21c0-.54-.06-1.08-.06-1.63s0-1.09.06-1.63L67 99.25a5 5 0 01-1.4-5.54 29.18 29.18 0 014.76-8.23 5.07 5.07 0 015.49-1.55l4.61 1.55a23.08 23.08 0 012.81-1.63l1-4.76a5.05 5.05 0 014.09-4 29.75 29.75 0 019.51 0 5.05 5.05 0 014.09 4l1 4.75a23 23 0 012.81 1.62l4.61-1.55a5.06 5.06 0 015.49 1.55 29.18 29.18 0 014.76 8.23 5.06 5.06 0 01-1.4 5.54l-3.64 3.21c0 .54.06 1.08.06 1.63s0 1.09-.06 1.62l3.64 3.21a5.05 5.05 0 011.4 5.53 29.37 29.37 0 01-4.76 8.24 5.06 5.06 0 01-5.5 1.55l-4.6-1.54a21.78 21.78 0 01-2.81 1.62l-1 4.76a5.05 5.05 0 01-4.09 4 26 26 0 01-4.79.4zm2.74-5.61zm-5.65-.85a22.6 22.6 0 005.83 0l.92-4.55a5 5 0 012.89-3.59 16 16 0 002.75-1.59 5.07 5.07 0 014.56-.71l4.41 1.48a23.36 23.36 0 002.91-5l-3.5-3.04a5.11 5.11 0 01-1.67-4.29c0-.53.08-1.06.08-1.6s0-1.07-.08-1.6a5 5 0 011.67-4.29l3.48-3.08a23 23 0 00-2.91-5l-4.4 1.48a5.06 5.06 0 01-4.56-.71 16.38 16.38 0 00-2.75-1.59 5.09 5.09 0 01-2.89-3.59L96 81.12a23.53 23.53 0 00-5.81 0l-.92 4.55a5.09 5.09 0 01-2.89 3.59 16 16 0 00-2.75 1.59 5.07 5.07 0 01-4.56.71l-4.41-1.48a23 23 0 00-2.91 5l3.48 3.07a5.06 5.06 0 011.66 4.3c0 .52-.08 1-.08 1.59s0 1.07.08 1.6a5.07 5.07 0 01-1.67 4.36l-3.48 3a22.72 22.72 0 002.91 5l4.4-1.48a5.07 5.07 0 014.56.71 16 16 0 002.75 1.59 5.1 5.1 0 012.89 3.58zm12.83-3.28zm-32.31-17.43zm0-4.4zm41.59-12.06zm-16.46-9.51z" transform="translate(-29.36 -6.81)"/><path class="dcls-1" d="M93.08 114.71a10.62 10.62 0 1110.62-10.62 10.63 10.63 0 01-10.62 10.62zm0-15a4.39 4.39 0 104.39 4.39 4.4 4.4 0 00-4.39-4.41zM49.12 40.53h-.42a3.33 3.33 0 01-3.22-3.43 3.33 3.33 0 013.22-3.43h.41a3.33 3.33 0 013.22 3.43 3.31 3.31 0 01-3.21 3.43zm0 19.91h-.42A3.33 3.33 0 0145.48 57a3.33 3.33 0 013.22-3.43h.41A3.33 3.33 0 0152.33 57a3.32 3.32 0 01-3.21 3.44z" transform="translate(-29.36 -6.81)"/></symbol><symbol viewBox="0 0 80 56" id="left" xmlns="http://www.w3.org/2000/svg"><path d="M2.82 30.82l-2.83-2.83 28.06-28 2.83 2.83-28.06 28zm77.09-4.85v4H3.41v-4h76.5zM30.89 53.18l-2.83 2.83L0 28.01l2.83-2.83 28.06 28z"/></symbol><symbol viewBox="0 0 80 56" id="right" xmlns="http://www.w3.org/2000/svg"><path d="M49.02 2.82l2.83-2.83 28.06 28-2.83 2.83-28.06-28zM76.5 25.97v4H0v-4h76.5zm.59-.79l2.83 2.83-28.06 28-2.83-2.83 28.06-28z"/></symbol></svg>