<svg id="Слой_1" data-name="Слой 1" xmlns="http://www.w3.org/2000/svg" viewBox="0 0 93.04 131.19"><defs><style>.cls-1{fill:#c6dae1;}</style></defs><title>3</title><path class="cls-1" d="M77.6,115.59h-31a15,15,0,0,1-15-15V19.84a15,15,0,0,1,15-15h31a15,15,0,0,1,15,15V51.26l-6.23-4.15V19.85A8.81,8.81,0,0,0,77.6,11h-31a8.81,8.81,0,0,0-8.8,8.81v80.71a8.81,8.81,0,0,0,8.81,8.81h31a8.81,8.81,0,0,0,8.81-8.81V90.3l6.23,4.15v6.1a15.06,15.06,0,0,1-15,15Z" transform="translate(-19.63 -4.81)"/><path class="cls-1" d="M108.08,112.46l-4.69-4.69a5.64,5.64,0,0,1-.43-7.5,16.14,16.14,0,0,0-1.25-21.42l-7.32-7.32,4.4-4.4,7.32,7.32a22.36,22.36,0,0,1,2,29.28l4.32,4.32Z" transform="translate(-19.63 -4.81)"/><path class="cls-1" d="M27.6,80a7,7,0,0,0-5.91,11.92L27.6,97.8Z" transform="translate(-19.63 -4.81)"/><path class="cls-1" d="M27.6,60.22a7,7,0,0,0-5.91,11.92l5.91,5.91Z" transform="translate(-19.63 -4.81)"/><path class="cls-1" d="M27.6,40.48A7,7,0,0,0,21.69,52.4l5.91,5.91Z" transform="translate(-19.63 -4.81)"/><path class="cls-1" d="M71.79,103.7H52.4a3.11,3.11,0,0,1-3.11-3.11h0a3.11,3.11,0,0,1,3.11-3.11H71.79a3.11,3.11,0,0,1,3.11,3.11h0A3.11,3.11,0,0,1,71.79,103.7Z" transform="translate(-19.63 -4.81)"/><path class="cls-1" d="M71.79,14.55H52.4a3.11,3.11,0,0,1-3.11-3.11h0A3.11,3.11,0,0,1,52.4,8.33H71.79a3.11,3.11,0,0,1,3.11,3.11h0A3.11,3.11,0,0,1,71.79,14.55Z" transform="translate(-19.63 -4.81)"/><path class="cls-1" d="M84.12,52.44A10.15,10.15,0,1,0,69.77,66.79L92.65,89.67V80.86L74.17,62.39a3.92,3.92,0,0,1,5.54-5.54L99.88,77l4.41-4.4Z" transform="translate(-19.63 -4.81)"/><path class="cls-1" d="M81.19,123.88a8.25,8.25,0,0,0-9.45-1.46,7.51,7.51,0,0,1-8.5-1.48l-1.68-1.68H52.75l6.08,6.09a13.77,13.77,0,0,0,15.57,2.71,2.12,2.12,0,0,1,2.4.24l7.75,7.7,4.39-4.42Z" transform="translate(-19.63 -4.81)"/></svg>