<svg id="Слой_1" data-name="Слой 1" xmlns="http://www.w3.org/2000/svg" viewBox="0 0 98 99.12"><defs><style>.cls-1{fill:#c6dae1;}</style></defs><title>1</title><rect class="cls-1" x="83.43" y="15.86" width="11.46" height="13.62"/><rect class="cls-1" x="3.12" y="2.97" width="64.64" height="12.66"/><rect class="cls-1" x="3.12" y="33.02" width="64.64" height="6.23"/><rect class="cls-1" x="3.12" y="12.51" width="64.64" height="6.23"/><path class="cls-1" d="M48.05,99.51H35.53a1.36,1.36,0,0,1-1.36-1.36V94.64a1.36,1.36,0,0,1,1.36-1.36H48a1.36,1.36,0,0,1,1.36,1.36v3.51A1.35,1.35,0,0,1,48.05,99.51Z" transform="translate(-18.98 -18.49)"/><path class="cls-1" d="M72.84,73.26H61a1.36,1.36,0,0,1-1.36-1.36V68.39A1.36,1.36,0,0,1,61,67H72.84a1.36,1.36,0,0,1,1.36,1.36V71.9A1.36,1.36,0,0,1,72.84,73.26Z" transform="translate(-18.98 -18.49)"/><path class="cls-1" d="M73.65,99.51H60.14a1.36,1.36,0,0,1-1.36-1.36V94.64a1.36,1.36,0,0,1,1.36-1.36H73.66A1.36,1.36,0,0,1,75,94.64v3.51A1.37,1.37,0,0,1,73.65,99.51Z" transform="translate(-18.98 -18.49)"/><path class="cls-1" d="M72.84,82.26H61a1.36,1.36,0,0,1-1.36-1.36V77.39A1.36,1.36,0,0,1,61,76H72.84a1.36,1.36,0,0,1,1.36,1.36V80.9A1.36,1.36,0,0,1,72.84,82.26Z" transform="translate(-18.98 -18.49)"/><path class="cls-1" d="M38.68,102.65V90.14A1.36,1.36,0,0,1,40,88.78h3.51a1.36,1.36,0,0,1,1.36,1.36v12.51A1.36,1.36,0,0,1,43.55,104H40A1.36,1.36,0,0,1,38.68,102.65Z" transform="translate(-18.98 -18.49)"/><path class="cls-1" d="M44.43,81.68,34.75,72a1.36,1.36,0,0,1,0-1.92l2.48-2.48a1.36,1.36,0,0,1,1.92,0l9.68,9.68a1.36,1.36,0,0,1,0,1.92l-2.48,2.48A1.34,1.34,0,0,1,44.43,81.68Z" transform="translate(-18.98 -18.49)"/><path class="cls-1" d="M34.75,77.28l9.68-9.68a1.36,1.36,0,0,1,1.92,0l2.48,2.48a1.36,1.36,0,0,1,0,1.92l-9.68,9.68a1.36,1.36,0,0,1-1.92,0L34.75,79.2A1.36,1.36,0,0,1,34.75,77.28Z" transform="translate(-18.98 -18.49)"/><path class="cls-1" d="M80.19,117.61H28.65A9.68,9.68,0,0,1,19,107.94V28.16a9.68,9.68,0,0,1,9.67-9.67H80.19a9.68,9.68,0,0,1,9.67,9.67v79.78A9.68,9.68,0,0,1,80.19,117.61ZM28.65,24.72a3.44,3.44,0,0,0-3.44,3.44v79.78a3.45,3.45,0,0,0,3.44,3.44H80.19a3.44,3.44,0,0,0,3.44-3.44V28.16a3.45,3.45,0,0,0-3.44-3.44Z" transform="translate(-18.98 -18.49)"/><path class="cls-1" d="M117,51.08H99.29V37.7a6.47,6.47,0,0,1,6.46-6.46h4.76A6.47,6.47,0,0,1,117,37.7V51.08Zm-11.46-6.22h5.23V37.7a.24.24,0,0,0-.24-.24h-4.76a.24.24,0,0,0-.24.24v7.16Z" transform="translate(-18.98 -18.49)"/><path class="cls-1" d="M108.14,108.65l-6.69-7.12a8,8,0,0,1-2.16-5.45V44.86H117V96.08a7.94,7.94,0,0,1-2.16,5.45Zm-2.62-57.57v45a1.75,1.75,0,0,0,.47,1.19l2.14,2.28,2.14-2.28a1.75,1.75,0,0,0,.47-1.19v-45Z" transform="translate(-18.98 -18.49)"/></svg>